HIERARCHY
ROOT Hips
{
  OFFSET -331.093 83.8371 -317.828
  CHANNELS 6 Xposition Yposition Zposition Zrotation Xrotation Yrotation
  JOINT LeftUpLeg
  {
    OFFSET 8.64259 1.95398 -2.38835
    CHANNELS 3 Zrotation Xrotation Yrotation
    JOINT LeftLeg
    {
      OFFSET 43.7702 0 0
      CHANNELS 3 Zrotation Xrotation Yrotation
      JOINT LeftFoot
      {
        OFFSET 40.6238 0 0
        CHANNELS 3 Zrotation Xrotation Yrotation
        JOINT LeftToeBase
        {
          OFFSET 12.7242 0 0
          CHANNELS 3 Zrotation Xrotation Yrotation
          End Site
          {
            OFFSET 0 0 0
          }
        }
      }
    }
  }
  JOINT RightUpLeg
  {
    OFFSET -8.2249 1.95398 -2.59336
    CHANNELS 3 Zrotation Xrotation Yrotation
    JOINT RightLeg
    {
      OFFSET 43.5653 0 0
      CHANNELS 3 Zrotation Xrotation Yrotation
      JOINT RightFoot
      {
        OFFSET 40.6238 0 0
        CHANNELS 3 Zrotation Xrotation Yrotation
        JOINT RightToeBase
        {
          OFFSET 12.7242 0 0
          CHANNELS 3 Zrotation Xrotation Yrotation
          End Site
          {
            OFFSET 0 0 0
          }
        }
      }
    }
  }
  JOINT Spine
  {
    OFFSET 0.165834 0.87714 6.61349
    CHANNELS 3 Zrotation Xrotation Yrotation
    JOINT Spine1
    {
      OFFSET 7.38963 1.71661e-005 0
      CHANNELS 3 Zrotation Xrotation Yrotation
      JOINT Spine2
      {
        OFFSET 11.9445 1.14441e-005 0
        CHANNELS 3 Zrotation Xrotation Yrotation
        JOINT Spine3
        {
          OFFSET 14.7254 4.19617e-005 0
          CHANNELS 3 Zrotation Xrotation Yrotation
          JOINT Spine4
          {
            OFFSET 10.9679 0 0
            CHANNELS 3 Zrotation Xrotation Yrotation
            JOINT RightShoulder
            {
              OFFSET 2.46616 -1.6653 3.69651
              CHANNELS 3 Zrotation Xrotation Yrotation
              JOINT RightArm
              {
                OFFSET 13.0012 0 0
                CHANNELS 3 Zrotation Xrotation Yrotation
                JOINT RightForeArm
                {
                  OFFSET 28.7848 1.62311e-005 0
                  CHANNELS 3 Zrotation Xrotation Yrotation
                  JOINT RightHand
                  {
                    OFFSET 26.5688 1.62095e-005 0
                    CHANNELS 3 Zrotation Xrotation Yrotation
                    End Site
                    {
                      OFFSET 0 0 0
                    }
                  }
                }
              }
            }
            JOINT LeftShoulder
            {
              OFFSET 2.38034 -1.29275 -3.7523
              CHANNELS 3 Zrotation Xrotation Yrotation
              JOINT LeftArm
              {
                OFFSET 16.3182 6.07031e-005 0
                CHANNELS 3 Zrotation Xrotation Yrotation
                JOINT LeftForeArm
                {
                  OFFSET 27.0901 0 0
                  CHANNELS 3 Zrotation Xrotation Yrotation
                  JOINT LeftHand
                  {
                    OFFSET 24.5451 1.51738e-005 0
                    CHANNELS 3 Zrotation Xrotation Yrotation
                    End Site
                    {
                      OFFSET 0 0 0
                    }
                  }
                }
              }
            }
            JOINT Neck
            {
              OFFSET 5.0226 -0.0266342 0
              CHANNELS 3 Zrotation Xrotation Yrotation
              JOINT Head
              {
                OFFSET 6.69364 2.86102e-005 0
                CHANNELS 3 Zrotation Xrotation Yrotation
                End Site
                {
                  OFFSET 0 0 0
                }
              }
            }
          }
        }
      }
    }
  }
}
MOTION
Frames:	11
Frame Time:	0.0416667
122.386 26.9563 122.581 11.2329 3.53067 43.3607 -142.036 53.0982 87.1243 -80.0295 37.0867 -9.03099 57.4825 -1.68419 3.81381 33.7278 31.6269 55.8136 174.467 6.27175 82.0837 -23.2568 -17.1909 -6.80825 49.1557 4.57345 3.9006 32.6593 -1.29183 -8.00233 -1.03862 7.48348 -90.005 11.9107 -2.06753 0.212531 0.241333 -2.05618 0.303353 -22.3067 -2.03579 -0.418935 -2.29404 -2.03578 -0.418945 97.7783 -16.1764 -93.5477 32.3994 48.6981 -66.5514 131.182 -30.8898 -71.0753 20.7431 -0.905772 -20.2254 -86.4302 -23.7281 78.7805 -84.3907 -68.6343 -114.041 12.809 15.1613 -119.135 18.4409 3.49801 14.989 -5.23388 -5.21731 -5.91145 49.6806 -4.89062 -1.37861 
114.45 24.9495 120.229 15.5257 4.87723 43.0117 -134.658 61.4144 84.5382 -95.649 40.5504 -4.2094 57.3251 -2.12238 3.03662 34.323 31.4311 54.2689 173.903 4.08791 84.9115 -18.4554 -15.4093 -5.06629 47.174 4.68466 4.08702 31.2813 -0.8288 -4.51585 -1.3245 7.16538 -89.5197 12.5577 -2.4023 1.23931 0.888257 -2.34544 1.34387 -21.6637 -2.66365 0.459569 -1.65107 -2.66366 0.459604 98.8667 -11.0974 -91.8615 38.3579 51.8115 -69.6964 165.37 -5.75408 -60.2856 5.14399 1.83685 -35.632 -84.6103 -15.1593 80.1427 -66.1748 -67.6297 -102.32 13.8414 14.5385 -101.169 17.4201 2.46768 10.2389 -14.5142 -3.48523 -11.7862 56.0065 -2.87385 -0.45983 
107.749 21.7767 117.17 20.0115 5.36344 42.2954 -132.868 67.3977 85.554 -108.407 46.1508 -0.197158 57.0482 -1.62424 4.74756 34.3704 34.0059 56.9088 174.111 4.95137 85.4837 -25.1478 -11.7453 -4.98878 52.2845 1.70406 1.63077 31.594 1.74105 9.90806 -1.38561 6.93142 -89.1521 13.0317 -2.34314 1.9828 1.36119 -2.25363 2.08397 -21.1857 -2.83064 1.1867 -1.17303 -2.83064 1.18668 99.3714 -8.34045 -91.1338 30.5655 55.2028 -64.3285 -44.448 13.2625 -119.13 -27.5361 8.37491 -29.0473 -84.4584 -10.4109 78.7281 -45.0534 -64.613 -91.0554 15.0143 11.838 -82.2905 17.2016 1.68084 5.84777 -21.1209 -3.02852 -16.0492 59.963 -2.24761 0.943376 
103.739 18.2658 114.459 21.8499 6.64122 42.2242 -129.118 71.9622 84.7949 -117.675 48.0441 2.60517 56.415 -2.24402 4.44561 34.7075 33.3439 55.5085 174.473 -1.07604 85.0208 -23.122 -16.0461 -5.92026 63.7252 -4.61591 -2.19686 50.8986 4.12722 14.1302 -1.37009 6.48635 -89.0601 13.9212 -2.25706 2.18902 2.25022 -2.15855 2.28619 -20.2934 -2.8105 1.40935 -0.28078 -2.81051 1.40934 100.136 -3.81374 -88.8968 23.376 56.0211 -57.8362 -16.701 0.525423 -120.985 -12.75 -1.69504 7.26909 -84.079 -6.5361 78.1612 -37.2099 -61.2281 -85.889 17.1307 10.5839 -70.3098 17.9585 1.40909 3.94412 -24.0589 -2.57756 -20.4843 61.6066 -0.421188 4.05976 
101.57 16.2262 112.931 20.4934 7.53611 40.6845 -124.573 73.3254 82.8294 -120.579 51.9566 3.24769 56.4265 -2.29686 3.73033 34.0777 35.2304 58.7302 173.031 -7.04834 83.192 -10.5056 -19.8215 -4.65377 68.7334 -9.77318 -4.11352 64.5672 1.63705 5.03106 -1.10223 6.151 -88.9065 14.5859 -1.64241 2.43164 2.91358 -1.53382 2.50151 -19.6184 -2.29718 1.82581 0.394186 -2.29716 1.82579 101.32 1.85003 -86.4353 27.1138 57.7668 -58.5712 -17.5134 -0.535854 -116.896 -12.1193 -0.92383 3.34383 -84.1221 -2.58704 75.9853 -31.4538 -62.0526 -80.538 14.7175 9.10472 -62.3597 24.4277 1.36304 1.72601 -23.2909 -2.78211 -23.567 60.9828 1.12395 6.96582 
100.782 14.9347 112.422 19.6362 5.90758 40.395 -126.489 74.4169 88.5027 -122.841 53.4826 3.72109 56.0553 -2.53753 3.8544 38.2405 38.0239 53.1243 173.28 -8.94887 81.9927 -9.65356 -23.3074 -4.48495 68.1502 -9.96003 -4.10922 68.0953 -1.20166 -0.951232 -0.660538 6.23224 -88.728 14.4118 -0.68189 2.6515 2.73825 -0.564551 2.6789 -19.781 -1.44706 2.32426 0.231684 -1.44705 2.32427 101.937 15.1145 -87.5438 35.8037 60.5316 -51.6823 -13.7192 -4.02918 -116.018 -14.8768 -1.26215 4.80159 -83.3555 -0.388226 76.9698 -15.801 -62.068 -54.9956 5.74854 2.05373 -81.1161 38.5556 4.10662 6.94999 -18.2858 -4.4839 -24.0109 56.1532 1.30244 9.40025 
100.734 15.0892 113.11 20.8171 6.87105 40.5529 -125.055 75.5913 85.8222 -123.788 49.3897 4.01703 56.328 -1.67945 6.30832 48.697 37.7117 34.3263 174.409 -6.62116 83.3063 -15.2789 -22.6427 -5.95985 69.603 -9.90074 -4.15204 67.876 -1.7402 -2.02115 -0.718634 6.61945 -88.4211 13.6331 -0.658594 3.25081 1.95822 -0.514962 3.27661 -20.5509 -1.60475 2.90312 -0.538286 -1.60475 2.9031 102.592 27.9287 -89.5983 47.6097 67.0957 -45.0952 -14.4482 -6.984 -117.093 -15.8222 -1.25538 3.99555 -87.7516 -19.0088 73.6339 9.84209 -52.0325 -8.7874 24.444 -0.64174 -130.617 46.5305 10.5524 18.3431 -10.459 -6.33205 -26.0081 49.8286 0.106301 8.60285 
100.317 16.7005 113.941 22.5393 7.03625 44.2815 -140.008 74.9778 98.7372 -120.653 37.5772 3.72846 56.2217 -2.29178 6.19669 55.0924 31.2296 16.0064 177.102 -3.1239 89.586 -23.3093 -19.9903 -6.37363 68.0733 -7.77341 -3.57464 69.422 -0.670442 0.165678 -0.939676 7.29871 -88.4101 12.2823 -1.11406 3.29498 0.607573 -0.968053 3.34074 -21.9055 -2.05247 2.80845 -1.89285 -2.05247 2.80844 103.304 32.7027 -94.2873 55.3956 76.0704 -40.9244 -18.7707 -7.79132 -117.252 -16.8872 -1.15753 2.49759 -94.1264 -39.3232 69.8109 14.5764 -25.6554 12.3446 30.4125 -22.7296 -136.263 53.8935 14.2836 22.2119 -6.60203 -7.28575 -21.8597 48 -4.19533 0.775107 
100.685 19.3786 113.149 20.6999 6.85742 48.0979 -151.203 61.9575 107.673 -106.162 32.358 1.03153 55.2406 -3.4884 5.03183 53.9547 25.561 9.55525 175.324 3.69993 91.6236 -29.2553 -14.757 -3.60762 66.7437 -5.09433 -2.73349 66.0562 0.747291 3.05275 -0.89776 7.52317 -88.5412 11.8334 -1.09917 3.02589 0.15933 -0.964995 3.07126 -22.358 -1.95749 2.55612 -2.34534 -1.9575 2.55613 103.692 31.2483 -120.393 -78.8094 73.1658 96.6528 -20.0873 -12.1432 -117.615 -21.0255 -1.90986 5.54898 -96.2705 -43.4973 67.7751 18.3275 -24.0277 2.55187 34.4276 -28.0811 -134.151 43.3154 12.2429 24.396 -4.41375 -8.14507 -14.0629 46.3896 -9.13511 -7.24202 
100.604 22.2593 109.534 12.1103 0.560702 51.6595 -153.989 39.5824 108.832 -75.8078 30.8751 -5.51212 49.3334 -9.49738 -3.46552 44.6603 19.448 14.8764 174.493 13.8708 91.904 -38.2498 -14.6868 -1.81695 65.6096 -2.46159 -1.55231 66.2543 6.08115 14.2013 -0.0092088 7.37202 -88.7552 12.1183 0.570138 2.41907 0.445264 0.676024 2.39165 -22.072 -0.183015 2.47858 -2.05941 -0.183015 2.47857 89.9399 5.06895 -135.435 -87.6013 56.1699 74.4875 -21.3419 -5.8576 -108.277 -21.5826 -1.90171 5.26629 -103.985 -49.4253 58.6289 18.9887 -36.0313 -1.98452 32.7177 -27.1234 -137.787 37.2675 9.5058 21.8066 -3.50417 -7.39073 -14.0799 44.9781 -8.6467 -8.21041 
99.921 23.0446 104.541 5.16553 -5.58354 52.969 -164.308 16.3699 104.073 -39.3671 22.1474 -4.52937 43.1077 -12.989 -9.05263 34.5579 9.72519 16.0388 172.981 20.7047 91.3733 -45.9335 -18.5878 -0.106301 68.9412 -3.74786 -2.11565 73.5301 3.37106 7.4477 0.387907 7.07343 -88.7651 12.7075 1.36045 2.30773 1.03536 1.46067 2.24565 -21.4852 0.604244 2.60972 -1.4725 0.60425 2.6097 89.8736 -5.51088 -121.586 -55.2302 66.92 28.249 -21.1634 -3.28591 -92.9059 -24.1363 -1.7965 3.55694 -111.091 -52.2224 50.0684 21.111 -57.2377 -5.97181 23.4992 -18.4797 -147.421 28.6815 6.70067 19.7705 -6.49774 -3.85527 -15.8129 47.765 -5.63412 -8.33042 
